<svg width="29" height="28" viewBox="0 0 29 28" fill="none" xmlns="http://www.w3.org/2000/svg">
<path d="M13.5249 1.73366C13.8319 0.78911 15.1681 0.78911 15.4751 1.73366L17.9531 9.35936C18.0904 9.78176 18.484 10.0677 18.9282 10.0678L26.9464 10.0681C27.9396 10.0681 28.3525 11.339 27.5491 11.9228L21.0623 16.636C20.703 16.8971 20.5527 17.3598 20.6899 17.7823L23.1674 25.4081C23.4743 26.3527 22.3932 27.1382 21.5897 26.5544L15.1026 21.8417C14.7433 21.5806 14.2567 21.5806 13.8974 21.8417L7.41032 26.5544C6.60681 27.1382 5.52574 26.3527 5.83261 25.4081L8.31009 17.7823C8.44733 17.3598 8.29697 16.8971 7.93766 16.636L1.45095 11.9228C0.647483 11.339 1.06042 10.0681 2.05358 10.0681L10.0718 10.0678C10.516 10.0677 10.9096 9.78176 11.0469 9.35936L13.5249 1.73366Z" stroke="#475569" stroke-width="2"/>
</svg>
