<svg width="40" height="40" viewBox="0 0 40 40" fill="none" xmlns="http://www.w3.org/2000/svg">
<path d="M8 20L10.6667 17.3333M10.6667 17.3333L20 8L29.3333 17.3333M10.6667 17.3333V30.6667C10.6667 31.0203 10.8071 31.3594 11.0572 31.6095C11.3072 31.8595 11.6464 32 12 32H16M29.3333 17.3333L32 20M29.3333 17.3333V30.6667C29.3333 31.0203 29.1929 31.3594 28.9428 31.6095C28.6928 31.8595 28.3536 32 28 32H24M16 32C16.3536 32 16.6928 31.8595 16.9428 31.6095C17.1929 31.3594 17.3333 31.0203 17.3333 30.6667V25.3333C17.3333 24.9797 17.4738 24.6406 17.7239 24.3905C17.9739 24.1405 18.313 24 18.6667 24H21.3333C21.687 24 22.0261 24.1405 22.2761 24.3905C22.5262 24.6406 22.6667 24.9797 22.6667 25.3333V30.6667C22.6667 31.0203 22.8071 31.3594 23.0572 31.6095C23.3072 31.8595 23.6464 32 24 32M16 32H24" stroke="#475569" stroke-width="2" stroke-linecap="round" stroke-linejoin="round"/>
</svg>
