<svg width="40" height="40" viewBox="0 0 40 40" fill="none" xmlns="http://www.w3.org/2000/svg">
<path d="M10.828 27.7387C13.6259 26.1572 16.7861 25.3285 20 25.3333C23.3333 25.3333 26.4627 26.2067 29.172 27.7387M24 17.3333C24 18.3942 23.5786 19.4116 22.8284 20.1618C22.0783 20.9119 21.0609 21.3333 20 21.3333C18.9391 21.3333 17.9217 20.9119 17.1716 20.1618C16.4214 19.4116 16 18.3942 16 17.3333C16 16.2725 16.4214 15.2551 17.1716 14.5049C17.9217 13.7548 18.9391 13.3333 20 13.3333C21.0609 13.3333 22.0783 13.7548 22.8284 14.5049C23.5786 15.2551 24 16.2725 24 17.3333ZM32 20C32 21.5759 31.6896 23.1363 31.0866 24.5922C30.4835 26.0481 29.5996 27.371 28.4853 28.4853C27.371 29.5996 26.0481 30.4835 24.5922 31.0866C23.1363 31.6896 21.5759 32 20 32C18.4241 32 16.8637 31.6896 15.4078 31.0866C13.9519 30.4835 12.629 29.5996 11.5147 28.4853C10.4004 27.371 9.5165 26.0481 8.91345 24.5922C8.31039 23.1363 8 21.5759 8 20C8 16.8174 9.26428 13.7652 11.5147 11.5147C13.7652 9.26428 16.8174 8 20 8C23.1826 8 26.2348 9.26428 28.4853 11.5147C30.7357 13.7652 32 16.8174 32 20Z" stroke="#475569" stroke-width="2" stroke-linecap="round" stroke-linejoin="round"/>
</svg>
